<mxfile host="app.diagrams.net" modified="2023-03-17T14:59:14.730Z" agent="5.0 (Windows NT 10.0; Win64; x64) AppleWebKit/537.36 (KHTML, like Gecko) Chrome/110.0.0.0 Safari/537.36" etag="bo6QLtG-aitJBDq3arFQ" version="21.0.6" type="github">
  <diagram name="Page-1" id="97916047-d0de-89f5-080d-49f4d83e522f">
    <mxGraphModel dx="1434" dy="764" grid="1" gridSize="10" guides="1" tooltips="1" connect="1" arrows="1" fold="1" page="1" pageScale="1.5" pageWidth="1169" pageHeight="827" background="none" math="0" shadow="0">
      <root>
        <mxCell id="0" />
        <mxCell id="1" parent="0" />
        <mxCell id="2" value="Immob_1" style="rounded=1;fillColor=#10739E;strokeColor=none;shadow=1;gradientColor=none;fontStyle=1;fontColor=#FFFFFF;fontSize=14;" parent="1" vertex="1">
          <mxGeometry x="642" y="205.5" width="200" height="60" as="geometry" />
        </mxCell>
        <mxCell id="3" value="Individuelle" style="rounded=1;fillColor=#10739E;strokeColor=none;shadow=1;gradientColor=none;fontStyle=1;fontColor=#FFFFFF;fontSize=14;" parent="1" vertex="1">
          <mxGeometry x="440" y="340" width="220" height="60" as="geometry" />
        </mxCell>
        <mxCell id="7" value="SCI" style="rounded=1;fillColor=#10739E;strokeColor=none;shadow=1;gradientColor=none;fontStyle=1;fontColor=#FFFFFF;fontSize=14;" parent="1" vertex="1">
          <mxGeometry x="860" y="330" width="200" height="60" as="geometry" />
        </mxCell>
        <mxCell id="10" value="Office of &#xa;Backtrack Analysis" style="rounded=1;fillColor=#10739E;strokeColor=none;shadow=1;gradientColor=none;fontStyle=1;fontColor=#FFFFFF;fontSize=14;" parent="1" vertex="1">
          <mxGeometry x="282" y="795.5" width="200" height="60" as="geometry" />
        </mxCell>
        <mxCell id="11" value="Department of &#xa;Heuristic Support" style="rounded=1;fillColor=#10739E;strokeColor=none;shadow=1;gradientColor=none;fontStyle=1;fontColor=#FFFFFF;fontSize=14;" parent="1" vertex="1">
          <mxGeometry x="282" y="885.5" width="200" height="60" as="geometry" />
        </mxCell>
        <mxCell id="12" value="Office of Intelligence &#xa;Support" style="rounded=1;fillColor=#10739E;strokeColor=none;shadow=1;gradientColor=none;fontStyle=1;fontColor=#FFFFFF;fontSize=14;" parent="1" vertex="1">
          <mxGeometry x="282" y="975.5" width="200" height="60" as="geometry" />
        </mxCell>
        <mxCell id="29" value="" style="edgeStyle=elbowEdgeStyle;elbow=vertical;strokeWidth=4;endArrow=block;endFill=1;fontStyle=1;strokeColor=#23445D;" parent="1" source="2" target="3" edge="1">
          <mxGeometry x="22" y="165.5" width="100" height="100" as="geometry">
            <mxPoint x="22" y="265.5" as="sourcePoint" />
            <mxPoint x="122" y="165.5" as="targetPoint" />
            <Array as="points">
              <mxPoint x="720" y="300" />
            </Array>
          </mxGeometry>
        </mxCell>
        <mxCell id="39" value="" style="edgeStyle=elbowEdgeStyle;elbow=vertical;strokeWidth=4;endArrow=block;endFill=1;fontStyle=1;strokeColor=#23445D;" parent="1" target="10" edge="1">
          <mxGeometry x="62" y="175.5" width="100" height="100" as="geometry">
            <mxPoint x="382" y="765.5" as="sourcePoint" />
            <mxPoint x="162" y="175.5" as="targetPoint" />
          </mxGeometry>
        </mxCell>
        <mxCell id="40" value="" style="edgeStyle=elbowEdgeStyle;elbow=vertical;strokeWidth=4;endArrow=block;endFill=1;fontStyle=1;strokeColor=#23445D;" parent="1" source="10" target="11" edge="1">
          <mxGeometry x="62" y="185.5" width="100" height="100" as="geometry">
            <mxPoint x="62" y="285.5" as="sourcePoint" />
            <mxPoint x="162" y="185.5" as="targetPoint" />
          </mxGeometry>
        </mxCell>
        <mxCell id="41" value="" style="edgeStyle=elbowEdgeStyle;elbow=vertical;strokeWidth=4;endArrow=block;endFill=1;fontStyle=1;strokeColor=#23445D;" parent="1" source="11" target="12" edge="1">
          <mxGeometry x="62" y="195.5" width="100" height="100" as="geometry">
            <mxPoint x="62" y="295.5" as="sourcePoint" />
            <mxPoint x="162" y="195.5" as="targetPoint" />
          </mxGeometry>
        </mxCell>
        <mxCell id="sHedjoG0NSmY0kfoGlMr-55" value="" style="edgeStyle=elbowEdgeStyle;elbow=vertical;strokeWidth=4;endArrow=block;endFill=1;fontStyle=1;strokeColor=#23445D;entryX=0.5;entryY=0;entryDx=0;entryDy=0;" edge="1" parent="1" target="7">
          <mxGeometry x="32" y="165" width="100" height="100" as="geometry">
            <mxPoint x="782" y="265.5" as="sourcePoint" />
            <mxPoint x="1240" y="349.5" as="targetPoint" />
            <Array as="points">
              <mxPoint x="1020" y="300" />
            </Array>
          </mxGeometry>
        </mxCell>
        <mxCell id="sHedjoG0NSmY0kfoGlMr-56" value="" style="edgeStyle=elbowEdgeStyle;elbow=vertical;strokeWidth=4;endArrow=block;endFill=1;fontStyle=1;strokeColor=#23445D;" edge="1" parent="1">
          <mxGeometry x="-10" y="324.5" width="100" height="100" as="geometry">
            <mxPoint x="960" y="385" as="sourcePoint" />
            <mxPoint x="960" y="485" as="targetPoint" />
            <Array as="points">
              <mxPoint x="960" y="465" />
            </Array>
          </mxGeometry>
        </mxCell>
        <mxCell id="sHedjoG0NSmY0kfoGlMr-57" value="Location meublée" style="text;html=1;align=center;verticalAlign=middle;whiteSpace=wrap;rounded=0;fontStyle=1;fontColor=#FF0080;" vertex="1" parent="1">
          <mxGeometry x="960" y="410" width="120" height="30" as="geometry" />
        </mxCell>
        <mxCell id="sHedjoG0NSmY0kfoGlMr-58" value="Location meublée LMP &amp;gt;23&amp;nbsp;000 /year €" style="text;html=1;align=center;verticalAlign=middle;whiteSpace=wrap;rounded=0;fontStyle=1;fontColor=#FF0080;" vertex="1" parent="1">
          <mxGeometry x="200" y="450" width="140" height="30" as="geometry" />
        </mxCell>
        <mxCell id="sHedjoG0NSmY0kfoGlMr-59" value="" style="edgeStyle=elbowEdgeStyle;elbow=vertical;strokeWidth=4;endArrow=block;endFill=1;fontStyle=1;strokeColor=#23445D;entryX=0.5;entryY=0;entryDx=0;entryDy=0;" edge="1" parent="1" target="sHedjoG0NSmY0kfoGlMr-61">
          <mxGeometry x="10" y="344.5" width="100" height="100" as="geometry">
            <mxPoint x="960" y="480" as="sourcePoint" />
            <mxPoint x="870" y="510" as="targetPoint" />
            <Array as="points">
              <mxPoint x="950" y="470" />
            </Array>
          </mxGeometry>
        </mxCell>
        <mxCell id="sHedjoG0NSmY0kfoGlMr-60" value="" style="edgeStyle=elbowEdgeStyle;elbow=vertical;strokeWidth=4;endArrow=block;endFill=1;fontStyle=1;strokeColor=#23445D;" edge="1" parent="1">
          <mxGeometry x="10" y="344.5" width="100" height="100" as="geometry">
            <mxPoint x="960" y="480" as="sourcePoint" />
            <mxPoint x="1060" y="500" as="targetPoint" />
            <Array as="points">
              <mxPoint x="1010" y="470" />
            </Array>
          </mxGeometry>
        </mxCell>
        <mxCell id="sHedjoG0NSmY0kfoGlMr-61" value="IR" style="rounded=1;fillColor=#10739E;strokeColor=none;shadow=1;gradientColor=none;fontStyle=1;fontColor=#FFFFFF;fontSize=14;" vertex="1" parent="1">
          <mxGeometry x="842" y="500" width="50" height="40" as="geometry" />
        </mxCell>
        <mxCell id="sHedjoG0NSmY0kfoGlMr-62" value="IS" style="rounded=1;fillColor=#10739E;strokeColor=none;shadow=1;gradientColor=none;fontStyle=1;fontColor=#FFFFFF;fontSize=14;" vertex="1" parent="1">
          <mxGeometry x="1030" y="500" width="50" height="40" as="geometry" />
        </mxCell>
        <mxCell id="sHedjoG0NSmY0kfoGlMr-64" value="" style="edgeStyle=elbowEdgeStyle;elbow=vertical;strokeWidth=4;endArrow=block;endFill=1;fontStyle=1;strokeColor=#23445D;" edge="1" parent="1">
          <mxGeometry x="-28" y="309.5" width="100" height="100" as="geometry">
            <mxPoint x="460" y="410" as="sourcePoint" />
            <mxPoint x="340" y="520" as="targetPoint" />
            <Array as="points">
              <mxPoint x="420" y="450" />
            </Array>
          </mxGeometry>
        </mxCell>
        <mxCell id="sHedjoG0NSmY0kfoGlMr-65" value="" style="edgeStyle=elbowEdgeStyle;elbow=vertical;strokeWidth=4;endArrow=block;endFill=1;fontStyle=1;strokeColor=#23445D;" edge="1" parent="1">
          <mxGeometry x="-78" y="309.5" width="100" height="100" as="geometry">
            <mxPoint x="460" y="400" as="sourcePoint" />
            <mxPoint x="570" y="520" as="targetPoint" />
            <Array as="points">
              <mxPoint x="370" y="450" />
            </Array>
          </mxGeometry>
        </mxCell>
        <mxCell id="sHedjoG0NSmY0kfoGlMr-66" value="Location non meublée&lt;br&gt;LMNP" style="text;html=1;align=center;verticalAlign=middle;whiteSpace=wrap;rounded=0;fontStyle=1;fontColor=#FF0080;" vertex="1" parent="1">
          <mxGeometry x="570" y="450" width="140" height="30" as="geometry" />
        </mxCell>
        <mxCell id="sHedjoG0NSmY0kfoGlMr-67" value="&amp;nbsp;Avantages :&amp;nbsp;&lt;br&gt;- Charges défiscalisés (frais de gestions et intérêts d’emprunt notamment)&lt;br&gt;- Recette non imposables&amp;nbsp;" style="rounded=1;fillColor=#10739E;strokeColor=none;shadow=1;gradientColor=none;fontStyle=1;fontColor=#FFFFFF;fontSize=14;align=left;labelBackgroundColor=none;labelBorderColor=none;html=1;whiteSpace=wrap;" vertex="1" parent="1">
          <mxGeometry x="120" y="520" width="270" height="90" as="geometry" />
        </mxCell>
        <mxCell id="sHedjoG0NSmY0kfoGlMr-68" value=" Inconvenients : &#xa;- La contribution économique territoriale (CET) &#xa;- Taxe foncière&#xa;- Taxes taux global de 17,2 %" style="rounded=1;fillColor=#10739E;strokeColor=none;shadow=1;gradientColor=none;fontStyle=1;fontColor=#FFFFFF;fontSize=14;whiteSpace=wrap;align=left;" vertex="1" parent="1">
          <mxGeometry x="470" y="520" width="220" height="120" as="geometry" />
        </mxCell>
      </root>
    </mxGraphModel>
  </diagram>
</mxfile>
